<svg version="1.1" id="Layer_1" xmlns="http://www.w3.org/2000/svg" xmlns:xlink="http://www.w3.org/1999/xlink" x="0px" y="0px"
	 width="100%" viewBox="0 0 224 240" enable-background="new 0 0 224 240" xml:space="preserve">
<path fill="#000000" opacity="1.000000" stroke="none" 
	d="
M137.000000,207.247238 
	C100.175156,207.243713 63.850315,207.245468 27.525480,207.230148 
	C20.128201,207.227036 19.727337,206.841721 19.726431,199.727112 
	C19.720148,150.405304 19.723843,101.083496 19.735876,51.761692 
	C19.737461,45.260796 20.245977,44.763901 26.992790,44.763058 
	C89.144859,44.755287 151.296921,44.757015 213.448990,44.768574 
	C219.464554,44.769691 220.207458,45.439220 220.211548,51.265877 
	C220.246490,101.087524 220.255798,150.909195 220.248093,200.730850 
	C220.247192,206.519470 219.509476,207.221985 213.481369,207.228546 
	C188.154266,207.256088 162.827133,207.244034 137.000000,207.247238 
M199.490860,201.687225 
	C202.322952,201.687103 205.155060,201.694748 207.987122,201.685287 
	C214.637650,201.663071 214.666321,201.659775 214.668289,195.071793 
	C214.680099,155.418793 214.680786,115.765800 214.677032,76.112808 
	C214.676407,69.393532 214.658081,69.375099 207.644745,69.374039 
	C149.164932,69.365219 90.685112,69.361954 32.205296,69.362358 
	C25.321903,69.362404 25.307476,69.377373 25.307156,76.289673 
	C25.305336,115.776039 25.309063,155.262405 25.315807,194.748779 
	C25.316990,201.674103 25.327719,201.680359 32.051064,201.680771 
	C87.531929,201.684143 143.012802,201.684998 199.490860,201.687225 
M192.875351,49.439724 
	C189.881424,49.427471 186.887390,49.425564 183.893585,49.399792 
	C181.367508,49.378052 180.014587,50.727139 180.406738,53.119160 
	C181.033035,56.939476 178.283997,61.398941 182.466629,64.534241 
	C182.804245,64.787308 183.439346,64.677010 183.936371,64.678299 
	C186.597977,64.685211 189.259689,64.684448 191.921219,64.664131 
	C193.091919,64.655197 194.274536,64.616959 195.091049,63.571091 
	C196.526520,61.732414 195.545486,51.752064 192.875351,49.439724 
M199.312744,56.590382 
	C199.322250,58.246468 199.333969,59.902546 199.340683,61.558643 
	C199.347534,63.248878 199.976379,64.231758 201.821381,64.646904 
	C211.929916,66.921471 214.633987,64.709633 214.748444,54.656876 
	C214.796875,50.404293 213.169952,48.952915 209.204117,49.362537 
	C208.057114,49.481003 206.868301,49.514133 205.731277,49.354340 
	C200.784409,48.659145 198.488251,50.564434 199.312744,56.590382 
M161.996277,59.313629 
	C161.507126,63.359188 163.164856,64.904465 167.339203,64.771065 
	C177.836197,64.435638 176.739624,65.972786 176.801895,55.042007 
	C176.807556,54.049526 176.783981,53.051952 176.688812,52.064960 
	C176.542862,50.551258 175.651215,49.830872 174.163025,49.462288 
	C165.130005,47.225086 162.060349,49.449375 161.996277,59.313629 
z"/>
<path fill="#000000" opacity="1.000000" stroke="none" 
	d="
M43.555992,139.545959 
	C41.913750,138.182571 40.028324,137.515518 39.479038,134.637329 
	C57.678722,121.100967 76.149185,107.363213 94.776855,93.508530 
	C97.984711,100.986710 96.728775,106.015480 91.273140,110.079277 
	C81.521721,117.342918 71.795143,124.640015 62.077908,131.949341 
	C60.768078,132.934586 59.269352,133.786667 58.688034,135.503738 
	C58.988655,137.432144 60.710953,138.072159 61.984871,139.033966 
	C71.423141,146.159958 80.895912,153.240402 90.376236,160.310516 
	C96.780556,165.086639 97.862671,168.544662 95.202705,177.899963 
	C77.896332,165.046463 60.868290,152.399673 43.555992,139.545959 
z"/>
<path fill="#000000" opacity="1.000000" stroke="none" 
	d="
M158.557587,117.487579 
	C155.470703,115.185234 152.652573,113.121704 149.858032,111.026711 
	C143.074310,105.941093 142.141403,103.001488 144.684494,93.150002 
	C163.507385,107.201721 182.039291,121.036209 201.492386,135.558395 
	C182.251892,149.918365 163.724243,163.746307 145.054810,177.680069 
	C141.965866,170.177551 143.278992,164.998108 148.890182,160.814560 
	C158.357697,153.755875 167.839569,146.716232 177.272751,139.611969 
	C178.823715,138.443909 180.736923,137.571259 181.750519,134.840103 
	C174.203903,129.198929 166.520477,123.455505 158.557587,117.487579 
z"/>
<path fill="#000000" opacity="1.000000" stroke="none" 
	d="
M121.775497,145.635513 
	C119.251244,153.626984 116.828827,161.233139 114.481087,168.862274 
	C112.069427,176.699097 111.263466,177.156448 103.093369,174.893463 
	C102.084534,173.073685 102.999825,171.377304 103.534698,169.666580 
	C110.531479,147.288422 117.524895,124.909180 124.545120,102.538361 
	C126.991737,94.741905 127.244133,94.631149 136.998566,96.431549 
	C131.948517,112.774361 126.929314,129.017319 121.775497,145.635513 
z"/>
</svg>